<?xml version="1.0" encoding="UTF-8" standalone="no"?>
<!-- Created with Inkscape (http://www.inkscape.org/) -->

<svg
   xmlns:osb="http://www.openswatchbook.org/uri/2009/osb"
   xmlns:dc="http://purl.org/dc/elements/1.1/"
   xmlns:cc="http://creativecommons.org/ns#"
   xmlns:rdf="http://www.w3.org/1999/02/22-rdf-syntax-ns#"
   xmlns:svg="http://www.w3.org/2000/svg"
   xmlns="http://www.w3.org/2000/svg"
   xmlns:sodipodi="http://sodipodi.sourceforge.net/DTD/sodipodi-0.dtd"
   xmlns:inkscape="http://www.inkscape.org/namespaces/inkscape"
   width="64px"
   height="64px"
   id="svg2985"
   version="1.1"
   inkscape:version="0.48.4 r9939"
   inkscape:export-filename="C:\Users\domin_000.ACL-LUETJOHANN\Desktop\bitmap.png"
   inkscape:export-xdpi="45"
   inkscape:export-ydpi="45"
   sodipodi:docname="dial-a-device.svg">
  <defs
     id="defs2987">
    <linearGradient
       id="linearGradient4131"
       osb:paint="solid">
      <stop
         style="stop-color:#8d00ab;stop-opacity:1;"
         offset="0"
         id="stop4133" />
    </linearGradient>
  </defs>
  <sodipodi:namedview
     id="base"
     pagecolor="#ffffff"
     bordercolor="#666666"
     borderopacity="1.0"
     inkscape:pageopacity="0.0"
     inkscape:pageshadow="2"
     inkscape:zoom="4.497219"
     inkscape:cx="13.607327"
     inkscape:cy="47.214887"
     inkscape:current-layer="layer1"
     showgrid="true"
     inkscape:document-units="px"
     inkscape:grid-bbox="true"
     inkscape:window-width="1280"
     inkscape:window-height="737"
     inkscape:window-x="-8"
     inkscape:window-y="-8"
     inkscape:window-maximized="1" />
  <metadata
     id="metadata2990">
    <rdf:RDF>
      <cc:Work
         rdf:about="">
        <dc:format>image/svg+xml</dc:format>
        <dc:type
           rdf:resource="http://purl.org/dc/dcmitype/StillImage" />
        <dc:title />
      </cc:Work>
    </rdf:RDF>
  </metadata>
  <g
     id="layer1"
     inkscape:label="Layer 1"
     inkscape:groupmode="layer">
    <path
       style="fill:#ffffff;fill-opacity:1;stroke:none"
       d="M 32.322238,1.741524 C 15.545668,1.741524 1.939,15.34819 1.939,32.12476 c 0,16.77656 13.606668,30.38324 30.383238,30.38324 16.77657,0 30.38324,-13.60668 30.38324,-30.38324 0,-16.77657 -13.60667,-30.383236 -30.38324,-30.383236 z"
       id="path3051"
       inkscape:connector-curvature="0" />
    <path
       id="path3066"
       style="fill:#800080;fill-opacity:1;stroke:none"
       d="m 50.566653,41.945882 c 1.977417,2.625755 1.945002,2.560923 1.945002,2.560923 l 0.907664,1.037334 2.042258,1.231836 1.685667,0.680752 1.393918,0.226917 1.58842,-0.09724 1.199424,-0.162086 1.264255,-0.06484 0.87525,0.162082 0.421422,0.389002 -0.389007,0.745584 -1.52359,2.171922 -1.977416,2.042255 -0.518668,-0.09724 -1.426333,-0.842834 -2.074674,-1.167003 -1.847755,-1.29667 -1.491174,-1.556002 -1.556004,-2.107089 -1.685668,-2.171923 -0.907665,-1.361501 -0.194502,-0.778001 0.259334,-0.648337 0.583499,-0.259333 0.421422,0.06484 0.324165,0.324168 z M 32.322228,1.7410729 c -16.77657,0 -30.3832383,13.6066701 -30.3832383,30.3832381 0,16.776567 13.6066683,30.383238 30.3832383,30.383238 16.77657,0 30.383238,-13.606671 30.383238,-30.383238 0,-16.776568 -13.606668,-30.3832381 -30.383238,-30.3832381 z m 0.315178,1.7334838 c 2.220009,0 4.034289,1.8099945 4.034289,4.0658061 0,2.2558124 -1.81428,4.0973242 -4.034289,4.0973242 -2.220009,0 -4.002771,-1.8415118 -4.002771,-4.0973242 0,-2.2558116 1.782762,-4.0658061 4.002771,-4.0658061 z m 10.621526,2.7105379 c 2.22001,0 4.034289,1.8415121 4.034289,4.0973244 0,2.255812 -1.814279,4.065806 -4.034289,4.065806 -2.220008,0 -4.002771,-1.809994 -4.002771,-4.065806 0,-2.2558123 1.782763,-4.0973244 4.002771,-4.0973244 z m -21.24305,0.1891072 c 2.220007,0 4.002771,1.8415119 4.002771,4.0973232 0,2.255813 -1.782764,4.097326 -4.002771,4.097326 -2.22001,0 -4.03429,-1.841513 -4.03429,-4.097326 0,-2.2558113 1.81428,-4.0973232 4.03429,-4.0973232 z m 10.621524,7.0915222 c 10.336696,0 18.690105,8.38493 18.690105,18.721623 0,10.33669 -8.353409,18.690104 -18.690105,18.690104 -10.336694,0 -18.721621,-8.353414 -18.721621,-18.690104 0,-10.336693 8.384927,-18.721623 18.721621,-18.721623 z m -19.698675,0.252144 c 2.220009,0 4.002772,1.809995 4.002772,4.065807 0,2.255811 -1.782763,4.097323 -4.002772,4.097323 -2.220008,0 -4.0342894,-1.841512 -4.0342894,-4.097323 0,-2.255812 1.8142814,-4.065807 4.0342894,-4.065807 z M 8.2740837,25.127341 c 2.2200093,0 4.0027723,1.809994 4.0027723,4.065806 0,2.255813 -1.782763,4.097325 -4.0027723,4.097325 -2.2200079,0 -4.0342886,-1.841512 -4.0342886,-4.097325 0,-2.255812 1.8142807,-4.065806 4.0342886,-4.065806 z m 1.1661619,11.409474 c 2.2200084,0 4.0027714,1.809994 4.0027714,4.065806 0,2.255812 -1.782763,4.097325 -4.0027714,4.097325 -2.220009,0 -4.0342885,-1.841513 -4.0342885,-4.097325 0,-2.255812 1.8142795,-4.065806 4.0342885,-4.065806 z m 7.3751834,10.117239 c 2.22001,0 4.03429,1.809994 4.03429,4.065806 0,2.255814 -1.81428,4.097326 -4.03429,4.097326 -2.220007,0 -4.002769,-1.841512 -4.002769,-4.097326 0,-2.255812 1.782762,-4.065806 4.002769,-4.065806 z m 31.391811,0.252143 c 2.220009,0 4.002772,1.841513 4.002772,4.097325 0,2.255811 -1.782763,4.065807 -4.002772,4.065807 -2.220009,0 -4.034289,-1.809996 -4.034289,-4.065807 0,-2.255812 1.81428,-4.097325 4.034289,-4.097325 z m -21.400641,4.91679 c 2.220008,0 4.00277,1.841512 4.00277,4.097324 0,2.255812 -1.782762,4.097325 -4.00277,4.097325 -2.220008,0 -4.03429,-1.841513 -4.03429,-4.097325 0,-2.255812 1.814282,-4.097324 4.03429,-4.097324 z m 11.535545,0 c 2.220007,0 4.034287,1.841512 4.034287,4.097324 0,2.255812 -1.81428,4.097325 -4.034287,4.097325 -2.22001,0 -4.002772,-1.841513 -4.002772,-4.097325 0,-2.255812 1.782762,-4.097324 4.002772,-4.097324 z"
       inkscape:connector-curvature="0" />
    <text
       inkscape:export-xdpi="90"
       inkscape:export-ydpi="90"
       xml:space="preserve"
       style="font-size:41.33630752999999900px;font-style:normal;font-variant:normal;font-weight:bold;font-stretch:normal;text-align:start;line-height:125%;letter-spacing:0px;word-spacing:0px;writing-mode:lr-tb;text-anchor:start;fill:#800080;fill-opacity:1;stroke:none;font-family:Script MT Bold;-inkscape-font-specification:'Script MT Bold, Bold'"
       x="20.112221"
       y="45.931126"
       id="text4192"
       sodipodi:linespacing="125%"><tspan
         sodipodi:role="line"
         id="tspan4194"
         x="20.112221"
         y="45.931126">d</tspan></text>
  </g>
</svg>
